# xmcd
#
# Track frame offsets:
#	150
#	19661
#	37095
#	55758
#	76754
#	92262
#	113908
#	130921
#	147299
#	169316
#	194981
#	213906
#	225316
#	248863
#	260294
#	277873
#	292161
#
# Disc length: 4108 seconds
#
# Revision: 1
# Processed by: cddbd v1.5.1PL2 Copyright (c) Steve Scherf et al.
# Submitted via: audiograbber 1.83.01
#
DISCID=ef100a11
DTITLE=Various Artist - EK005
DYEAR=1900
DGENRE=karaoke
TTITLE0=CHRIS DE BURGH - LADY IN RED  
TTITLE1=WHITNEY HOUSTON - SAVING ALL MY LOVE FOR YOU  
TTITLE2=GLORIA GAYNOR - I WILL SURVIVE  
TTITLE3=SINEAD O'CONNOR - NOTHING COMPARES 2 U  
TTITLE4=ELVIS PRESLEY - LOVE ME TENDER  
TTITLE5=BEATLES - HEY JUDE  
TTITLE6=BEATLES - GET BACK  
TTITLE7=BANGLES - ETERNAL FLAME  
TTITLE8=LIONEL RICHIE and DIANA ROSS - ENDLESS LOVE  
TTITLE9=ELTON JOHN - DON'T LET THE SUN GO DOWN ON ME  
TTITLE10=ELTON JOHN - CANDLE IN THE WIND  
TTITLE11=BEATLES - ELEANOR RIGBY  
TTITLE12=MADONNA - LIKE A PRAYER  
TTITLE13=TOM JONES - WHAT'S NEW PUSSYCAT  
TTITLE14=VANESSA WILLIAMS - SAVE THE BEST FOR LAST  
TTITLE15=NILSSON - EVERYBODY'S TALKIN'  
TTITLE16=STEPPENWOLF - BORN TO BE WILD  
EXTD=
EXTT0=
EXTT1=
EXTT2=
EXTT3=
EXTT4=
EXTT5=
EXTT6=
EXTT7=
EXTT8=
EXTT9=
EXTT10=
EXTT11=
EXTT12=
EXTT13=
EXTT14=
EXTT15=
EXTT16=
PLAYORDER=
